<mxfile host="Electron" agent="Mozilla/5.0 (X11; Linux x86_64) AppleWebKit/537.36 (KHTML, like Gecko) draw.io/24.7.17 Chrome/128.0.6613.36 Electron/32.0.1 Safari/537.36" version="24.7.17">
  <diagram name="Page-1" id="595OyD2Uy5viJrLKXtSn">
    <mxGraphModel dx="1114" dy="1027" grid="1" gridSize="10" guides="1" tooltips="1" connect="1" arrows="1" fold="1" page="1" pageScale="1" pageWidth="827" pageHeight="1169" math="0" shadow="0">
      <root>
        <mxCell id="0" />
        <mxCell id="1" parent="0" />
        <mxCell id="c10KjqWaN-LSn1iy7Hr4-11" style="edgeStyle=orthogonalEdgeStyle;rounded=0;orthogonalLoop=1;jettySize=auto;html=1;" edge="1" parent="1" source="c10KjqWaN-LSn1iy7Hr4-2" target="c10KjqWaN-LSn1iy7Hr4-3">
          <mxGeometry relative="1" as="geometry">
            <Array as="points">
              <mxPoint x="310" y="280" />
              <mxPoint x="100" y="280" />
            </Array>
          </mxGeometry>
        </mxCell>
        <mxCell id="c10KjqWaN-LSn1iy7Hr4-12" style="edgeStyle=orthogonalEdgeStyle;rounded=0;orthogonalLoop=1;jettySize=auto;html=1;" edge="1" parent="1" source="c10KjqWaN-LSn1iy7Hr4-2" target="c10KjqWaN-LSn1iy7Hr4-4">
          <mxGeometry relative="1" as="geometry" />
        </mxCell>
        <mxCell id="c10KjqWaN-LSn1iy7Hr4-13" style="edgeStyle=orthogonalEdgeStyle;rounded=0;orthogonalLoop=1;jettySize=auto;html=1;entryX=0.5;entryY=0;entryDx=0;entryDy=0;" edge="1" parent="1" source="c10KjqWaN-LSn1iy7Hr4-2" target="c10KjqWaN-LSn1iy7Hr4-5">
          <mxGeometry relative="1" as="geometry" />
        </mxCell>
        <mxCell id="c10KjqWaN-LSn1iy7Hr4-14" style="edgeStyle=orthogonalEdgeStyle;rounded=0;orthogonalLoop=1;jettySize=auto;html=1;" edge="1" parent="1">
          <mxGeometry relative="1" as="geometry">
            <mxPoint x="370" y="280" as="sourcePoint" />
            <mxPoint x="520" y="350" as="targetPoint" />
          </mxGeometry>
        </mxCell>
        <mxCell id="c10KjqWaN-LSn1iy7Hr4-2" value="Hypervisor" style="rounded=0;whiteSpace=wrap;html=1;" vertex="1" parent="1">
          <mxGeometry x="250" y="200" width="120" height="60" as="geometry" />
        </mxCell>
        <mxCell id="c10KjqWaN-LSn1iy7Hr4-3" value="HI Supervisor" style="rounded=0;whiteSpace=wrap;html=1;dashed=1;" vertex="1" parent="1">
          <mxGeometry x="40" y="300" width="120" height="60" as="geometry" />
        </mxCell>
        <mxCell id="c10KjqWaN-LSn1iy7Hr4-21" style="edgeStyle=orthogonalEdgeStyle;rounded=0;orthogonalLoop=1;jettySize=auto;html=1;" edge="1" parent="1" source="c10KjqWaN-LSn1iy7Hr4-4" target="c10KjqWaN-LSn1iy7Hr4-20">
          <mxGeometry relative="1" as="geometry" />
        </mxCell>
        <mxCell id="c10KjqWaN-LSn1iy7Hr4-4" value="Health&amp;nbsp;&lt;span style=&quot;background-color: initial;&quot;&gt;Monitor&lt;/span&gt;" style="rounded=0;whiteSpace=wrap;html=1;" vertex="1" parent="1">
          <mxGeometry x="180" y="300" width="120" height="60" as="geometry" />
        </mxCell>
        <mxCell id="c10KjqWaN-LSn1iy7Hr4-15" style="edgeStyle=orthogonalEdgeStyle;rounded=0;orthogonalLoop=1;jettySize=auto;html=1;" edge="1" parent="1" source="c10KjqWaN-LSn1iy7Hr4-5" target="c10KjqWaN-LSn1iy7Hr4-7">
          <mxGeometry relative="1" as="geometry" />
        </mxCell>
        <mxCell id="c10KjqWaN-LSn1iy7Hr4-5" value="Low Integrity VM" style="rounded=0;whiteSpace=wrap;html=1;" vertex="1" parent="1">
          <mxGeometry x="320" y="300" width="120" height="60" as="geometry" />
        </mxCell>
        <mxCell id="c10KjqWaN-LSn1iy7Hr4-16" style="edgeStyle=orthogonalEdgeStyle;rounded=0;orthogonalLoop=1;jettySize=auto;html=1;" edge="1" parent="1" source="c10KjqWaN-LSn1iy7Hr4-6" target="c10KjqWaN-LSn1iy7Hr4-8">
          <mxGeometry relative="1" as="geometry" />
        </mxCell>
        <mxCell id="c10KjqWaN-LSn1iy7Hr4-6" value="High Integrity VM" style="rounded=0;whiteSpace=wrap;html=1;" vertex="1" parent="1">
          <mxGeometry x="460" y="300" width="120" height="60" as="geometry" />
        </mxCell>
        <mxCell id="c10KjqWaN-LSn1iy7Hr4-17" style="edgeStyle=orthogonalEdgeStyle;rounded=0;orthogonalLoop=1;jettySize=auto;html=1;" edge="1" parent="1" source="c10KjqWaN-LSn1iy7Hr4-7" target="c10KjqWaN-LSn1iy7Hr4-9">
          <mxGeometry relative="1" as="geometry" />
        </mxCell>
        <mxCell id="c10KjqWaN-LSn1iy7Hr4-7" value="EBcL&lt;br&gt;Linux Kernel" style="rounded=0;whiteSpace=wrap;html=1;" vertex="1" parent="1">
          <mxGeometry x="320" y="380" width="120" height="60" as="geometry" />
        </mxCell>
        <mxCell id="c10KjqWaN-LSn1iy7Hr4-18" style="edgeStyle=orthogonalEdgeStyle;rounded=0;orthogonalLoop=1;jettySize=auto;html=1;" edge="1" parent="1" source="c10KjqWaN-LSn1iy7Hr4-8" target="c10KjqWaN-LSn1iy7Hr4-10">
          <mxGeometry relative="1" as="geometry" />
        </mxCell>
        <mxCell id="c10KjqWaN-LSn1iy7Hr4-8" value="EBcLfSA&lt;br&gt;Linux Kernel" style="rounded=0;whiteSpace=wrap;html=1;" vertex="1" parent="1">
          <mxGeometry x="460" y="380" width="120" height="60" as="geometry" />
        </mxCell>
        <mxCell id="c10KjqWaN-LSn1iy7Hr4-9" value="EBcL Userland&lt;br&gt;+ low integrity&lt;br&gt;demo application" style="rounded=0;whiteSpace=wrap;html=1;" vertex="1" parent="1">
          <mxGeometry x="320" y="460" width="120" height="60" as="geometry" />
        </mxCell>
        <mxCell id="c10KjqWaN-LSn1iy7Hr4-10" value="EBcLfSA&lt;br&gt;high integrity&lt;br&gt;demo application" style="rounded=0;whiteSpace=wrap;html=1;" vertex="1" parent="1">
          <mxGeometry x="460" y="460" width="120" height="60" as="geometry" />
        </mxCell>
        <mxCell id="c10KjqWaN-LSn1iy7Hr4-20" value="Health Signal Handler" style="rounded=0;whiteSpace=wrap;html=1;dashed=1;" vertex="1" parent="1">
          <mxGeometry x="180" y="380" width="120" height="60" as="geometry" />
        </mxCell>
      </root>
    </mxGraphModel>
  </diagram>
</mxfile>
